<svg version="1.1" id="Layer_1" xmlns="http://www.w3.org/2000/svg" xmlns:xlink="http://www.w3.org/1999/xlink" x="0px" y="0px"
	 width="100%" viewBox="0 0 992 992" enable-background="new 0 0 992 992" xml:space="preserve">
<path fill="#000000" opacity="1.000000" stroke="none" 
	d="
M189.748917,569.741333 
	C187.916031,548.340698 194.566971,529.641907 206.267502,512.917908 
	C212.520905,503.979736 211.990433,497.138794 206.026535,488.520966 
	C198.246124,477.278198 192.470352,464.928925 190.486847,451.016876 
	C185.779617,418.000854 200.716339,386.508148 229.489838,369.634186 
	C235.525665,366.094513 241.517624,362.464874 247.695206,359.188568 
	C250.800781,357.541473 251.674225,355.388031 251.732452,352.005035 
	C251.927017,340.700562 250.829315,329.372894 252.625656,318.089874 
	C258.587097,280.645447 292.247314,251.763184 330.219208,251.654404 
	C337.551758,251.633392 344.888275,251.499939 352.215118,251.702820 
	C355.487823,251.793457 357.431976,250.565979 359.024689,247.798416 
	C363.676147,239.715790 368.094238,231.449493 373.376068,223.787567 
	C396.778107,189.840118 442.650543,179.507767 478.560211,199.839111 
	C484.358673,203.122116 490.318207,206.182068 495.812469,209.919617 
	C499.582672,212.484329 502.417999,212.130478 506.165558,209.948883 
	C516.648987,203.845978 526.793091,197.098938 538.540161,193.344284 
	C573.710571,182.102951 612.300659,196.372589 631.418884,227.952194 
	C635.386902,234.506714 639.287292,241.109985 642.956726,247.833832 
	C644.529785,250.716263 646.517334,251.656326 649.731140,251.723465 
	C661.035400,251.959595 672.362793,250.823532 683.646545,252.614014 
	C721.321777,258.592224 750.252747,292.318390 750.335815,330.522888 
	C750.351379,337.688782 750.507996,344.859924 750.278748,352.018372 
	C750.168884,355.448151 751.333374,357.447510 754.315369,359.203613 
	C763.919373,364.859375 774.029480,369.700958 782.769409,376.777191 
	C812.621948,400.947205 821.141907,443.128662 802.875366,476.990662 
	C799.159363,483.879181 795.243835,490.668396 791.175537,497.354431 
	C789.578491,499.979065 789.642822,501.961365 791.155334,504.643555 
	C796.711792,514.497253 803.328003,523.816895 807.217407,534.539307 
	C821.137207,572.914429 806.296997,613.101685 770.844666,633.354736 
	C765.348389,636.494568 759.948730,639.811646 754.371521,642.798523 
	C751.342163,644.420837 750.314087,646.548889 750.259277,649.977905 
	C750.078674,661.284546 751.040955,672.599121 749.385864,683.902649 
	C744.672913,716.090210 715.759277,744.866394 683.668030,749.391418 
	C672.525330,750.962646 661.388062,750.136292 650.250793,750.281189 
	C646.649353,750.328125 644.491028,751.447937 642.658447,754.557861 
	C636.832764,764.444336 631.803650,774.813232 624.443054,783.776855 
	C600.223145,813.271973 555.892334,821.234375 523.002075,801.876770 
	C516.972595,798.328064 510.851898,794.929138 504.901794,791.253113 
	C502.140198,789.546936 499.955261,789.732422 497.118134,791.308899 
	C485.070953,798.002991 473.661377,805.897278 460.080902,809.655396 
	C426.784760,818.869385 389.982147,804.887512 371.690857,775.610352 
	C367.456146,768.832275 363.484406,761.879395 359.654022,754.863770 
	C357.836273,751.534424 355.555878,750.308472 351.707306,750.272339 
	C338.923676,750.152466 326.066681,751.468994 313.402954,748.366516 
	C276.611145,739.352966 251.695068,707.738403 251.651062,669.851440 
	C251.643112,663.018799 251.512527,656.182495 251.704514,649.355286 
	C251.790588,646.295227 250.752838,644.377563 248.072418,642.940735 
	C243.376297,640.423401 238.865784,637.560242 234.174225,635.033752 
	C208.214890,621.053833 193.425934,599.455017 189.748917,569.741333 
M401.779388,279.353333 
	C378.274231,292.948853 354.821686,306.636932 331.221375,320.065216 
	C326.248657,322.894592 322.727875,326.546631 319.893921,331.500610 
	C300.702393,365.048828 281.323242,398.489960 261.906464,431.908569 
	C260.071198,435.067261 259.292694,438.204468 259.299866,441.830505 
	C259.378113,481.328064 259.381378,520.825867 259.295410,560.323425 
	C259.287476,563.967102 260.142151,567.087708 261.964539,570.229187 
	C281.693817,604.238953 301.365784,638.282104 320.937622,672.382568 
	C323.095184,676.141724 325.841339,678.890503 329.585052,681.041931 
	C363.962311,700.797913 398.286316,720.646729 432.601471,740.510498 
	C435.128021,741.973022 437.675323,742.704468 440.632385,742.699707 
	C480.796631,742.634949 520.960999,742.633301 561.125244,742.692688 
	C564.072327,742.697021 566.607239,742.009644 569.150757,740.536377 
	C604.039795,720.329285 638.956543,700.169922 673.902771,680.061951 
	C676.602112,678.508728 678.556641,676.530457 680.114746,673.822449 
	C700.303833,638.732544 720.562195,603.682434 740.854919,568.652283 
	C742.163696,566.393066 742.681824,564.113586 742.679443,561.536926 
	C742.641785,521.205933 742.638367,480.874939 742.688416,440.544006 
	C742.691833,437.782288 742.108459,435.349579 740.721069,432.956055 
	C720.419250,397.931549 700.146118,362.890350 679.931091,327.815704 
	C678.458313,325.260315 676.586792,323.372742 674.049866,321.912323 
	C639.254761,301.881531 604.481323,281.813202 569.716431,261.730072 
	C567.069763,260.201141 564.394714,259.301239 561.235352,259.307068 
	C521.071228,259.381104 480.906799,259.371765 440.742584,259.306702 
	C437.785553,259.301910 435.234283,260.025238 432.713074,261.501953 
	C422.650757,267.395569 412.530701,273.190674 401.779388,279.353333 
M197.348434,562.543274 
	C198.355591,601.638306 222.692535,623.040771 251.325623,634.543213 
	C251.420898,634.048340 251.594482,633.565918 251.595062,633.083313 
	C251.620163,612.274292 251.604416,591.465210 251.677460,570.656372 
	C251.685593,568.338379 250.760590,566.504944 249.670273,564.619263 
	C242.672836,552.517822 235.709961,540.396362 228.719254,528.291016 
	C225.165955,522.137939 221.578308,516.004700 217.621719,509.201385 
	C207.141815,525.851074 197.469070,541.861938 197.348434,562.543274 
M803.636414,574.159119 
	C807.975647,549.650452 797.839600,529.436584 784.867432,510.125305 
	C783.639343,510.174957 783.297546,510.977112 782.892578,511.679718 
	C772.587280,529.554565 762.310486,547.445862 751.959351,565.294006 
	C750.545166,567.732483 750.326294,570.269104 750.330933,572.966431 
	C750.363831,591.942627 750.332275,610.918884 750.376892,629.894958 
	C750.380615,631.478821 749.826721,633.200073 750.965820,634.671143 
	C776.058533,623.400940 796.932129,608.425049 803.636414,574.159119 
M794.819946,402.656128 
	C784.913757,385.064819 768.415344,375.612244 751.358643,366.988892 
	C750.049866,367.927307 750.369202,369.016449 750.368225,369.957947 
	C750.346802,390.285187 750.380249,410.612579 750.319458,430.939667 
	C750.312073,433.415833 751.205627,435.437103 752.394043,437.480560 
	C760.599609,451.590637 768.768677,465.721924 776.953247,479.844208 
	C779.330750,483.946594 781.720093,488.042084 784.195190,492.297363 
	C804.549194,464.269379 812.243347,435.251160 794.819946,402.656128 
M298.436188,672.119202 
	C285.666809,664.760376 272.897430,657.401611 259.899933,649.911316 
	C251.740448,719.569275 303.105743,750.043701 351.149994,741.604797 
	C350.824310,739.210876 349.404755,737.315430 348.253662,735.312744 
	C342.281647,724.923157 335.618958,714.867615 330.451721,704.093872 
	C323.563812,689.732483 314.061554,678.529419 298.436188,672.119202 
M251.647797,414.499359 
	C251.647797,398.773804 251.647797,383.048218 251.647797,367.097076 
	C226.933533,374.753845 205.060806,398.437500 199.375702,422.210724 
	C193.011765,448.822571 202.708740,470.918976 217.839951,492.484375 
	C226.457428,477.526154 234.130844,462.732788 243.237320,448.881561 
	C250.109344,438.429047 253.026337,427.682831 251.647797,414.499359 
M457.563416,802.059204 
	C470.282593,798.693909 480.959900,791.414368 492.863831,784.348328 
	C491.617706,783.659973 491.182373,783.429016 490.755981,783.182556 
	C473.030487,772.937927 455.296326,762.708191 437.591644,752.427673 
	C435.063904,750.959961 432.463898,750.326721 429.526489,750.337830 
	C410.377594,750.410400 391.228180,750.354553 372.079071,750.397461 
	C370.501282,750.401001 368.774017,749.867676 367.325562,751.035400 
	C382.022797,787.028809 413.226807,812.046814 457.563416,802.059204 
M564.869629,249.747711 
	C567.152466,251.355194 569.711731,251.682297 572.450500,251.675156 
	C591.420471,251.625671 610.390625,251.675629 629.360535,251.623734 
	C631.064880,251.619064 633.072815,252.345474 634.382690,250.463303 
	C614.566956,200.720428 562.247559,178.287247 509.757080,217.802292 
	C528.066223,228.417923 546.135681,238.894562 564.869629,249.747711 
M476.537018,208.020142 
	C431.315002,182.118011 383.552307,206.305573 367.516022,251.377808 
	C368.193176,251.467163 368.840637,251.626862 369.488159,251.627258 
	C389.957581,251.639862 410.427094,251.609787 430.896301,251.671738 
	C433.381317,251.679260 435.399078,250.719620 437.424652,249.547836 
	C452.977020,240.550720 468.535492,231.564102 484.079803,222.553085 
	C486.719177,221.023041 489.299866,219.391693 492.575928,217.401108 
	C486.888397,214.061249 482.038239,211.213120 476.537018,208.020142 
M596.500061,750.369019 
	C588.845276,750.372925 581.188232,750.487793 573.536682,750.332153 
	C569.906433,750.258362 566.759338,751.121521 563.621826,752.969055 
	C552.012207,759.805420 540.280945,766.434937 528.614929,773.175903 
	C522.383057,776.776855 516.191040,780.446655 509.711334,784.243408 
	C534.581726,801.951904 560.261292,811.000610 589.819580,799.316528 
	C612.588501,790.316223 625.166748,772.070496 635.166321,750.370239 
	C622.091187,750.370239 609.795654,750.370239 596.500061,750.369019 
M708.025085,332.414581 
	C719.205811,338.827271 730.386536,345.239929 742.088562,351.951630 
	C744.891235,322.058533 740.041138,295.874542 716.440796,276.062805 
	C697.183411,259.896790 674.574707,257.914520 650.555603,259.803986 
	C650.978943,261.106689 651.079529,261.792389 651.401001,262.350861 
	C661.786987,280.389679 672.199707,298.413086 682.588318,316.450439 
	C683.458557,317.961395 684.741272,318.932587 686.208679,319.777924 
	C693.278748,323.850952 700.331665,327.953888 708.025085,332.414581 
M652.409302,737.800293 
	C651.931702,739.151978 650.483704,740.173340 651.080872,742.185059 
	C679.048584,744.736267 704.649536,740.302612 724.534119,717.966003 
	C741.841614,698.524170 744.198914,675.377563 742.167419,650.432190 
	C740.338989,651.250366 739.083618,651.685120 737.953430,652.336914 
	C720.792847,662.232849 703.669739,672.194092 686.476807,682.033325 
	C683.998962,683.451416 682.571594,685.550049 681.235046,687.868713 
	C671.757019,704.311279 662.270142,720.748718 652.409302,737.800293 
M297.711823,330.162079 
	C302.332275,327.509430 306.835571,324.618713 311.605896,322.270477 
	C316.462006,319.880005 319.660767,316.297943 322.287567,311.604797 
	C331.068268,295.916901 340.208893,280.430664 349.156219,264.835388 
	C350.012421,263.342987 351.530914,261.967285 350.862976,259.914581 
	C287.799408,252.110687 252.098267,297.185944 260.276611,351.805725 
	C272.709412,344.620880 284.895264,337.578735 297.711823,330.162079 
M765.586609,475.864380 
	C760.798828,467.702515 756.011108,459.540619 750.704651,450.494507 
	C750.704651,484.572449 750.704651,517.362610 750.704651,551.496155 
	C760.379883,534.790344 769.351074,519.236023 778.409363,503.732544 
	C779.697693,501.527527 779.291443,499.753754 778.103882,497.725891 
	C773.983643,490.690338 769.973145,483.590576 765.586609,475.864380 
M241.298813,467.728302 
	C235.641312,477.514587 230.023575,487.324219 224.298676,497.070892 
	C222.844193,499.547150 222.359924,501.639130 223.990723,504.402496 
	C231.932617,517.859985 239.648529,531.450684 247.473572,544.977356 
	C248.535583,546.813232 249.761993,548.553894 251.243652,550.852844 
	C251.243652,517.152588 251.243652,484.429108 251.243652,450.553040 
	C247.651489,456.767548 244.664474,461.935120 241.298813,467.728302 
M524.091248,235.479614 
	C517.889709,231.896698 511.580841,228.483643 505.531738,224.659653 
	C502.476044,222.727982 500.019775,222.500610 496.876312,224.444321 
	C490.505402,228.383636 483.895538,231.934708 477.415680,235.700089 
	C468.769653,240.724182 460.153595,245.799866 450.668732,251.354645 
	C484.538818,251.354645 517.231567,251.354645 551.446106,251.354645 
	C541.689941,245.705963 533.200439,240.790619 524.091248,235.479614 
M522.193237,767.641541 
	C531.659424,762.164429 541.125610,756.687317 551.436340,750.721558 
	C517.461548,750.721558 484.677887,750.721558 450.576904,750.721558 
	C467.412079,760.461365 483.112762,769.509338 498.764404,778.641296 
	C500.913147,779.895020 502.512390,779.049500 504.283173,778.011963 
	C510.025574,774.647278 515.794434,771.327759 522.193237,767.641541 
M284.845917,625.581299 
	C276.595062,611.277100 268.344238,596.972900 259.354248,581.387268 
	C259.354248,601.056885 259.406799,619.161621 259.300964,637.265381 
	C259.283936,640.183899 261.006714,641.315796 263.082977,642.513123 
	C272.592377,647.996826 282.066345,653.541931 291.578552,659.020752 
	C297.327026,662.331726 303.122131,665.561829 308.896271,668.828308 
	C309.077850,668.577026 309.259430,668.325745 309.441010,668.074463 
	C301.371033,654.116760 293.301056,640.159119 284.845917,625.581299 
M351.089966,724.485107 
	C353.779449,729.083496 356.675446,733.576843 359.086914,738.316711 
	C360.736267,741.558594 362.833832,742.778625 366.510529,742.735413 
	C382.494720,742.547607 398.482391,742.674072 414.468628,742.623718 
	C415.795380,742.619507 417.334900,743.148010 418.858704,741.674316 
	C390.459381,725.272827 362.324615,709.024048 334.189819,692.775330 
	C333.928009,693.065491 333.666168,693.355652 333.404327,693.645874 
	C339.180115,703.712830 344.955902,713.779846 351.089966,724.485107 
M696.001160,339.610016 
	C711.190063,365.980957 726.378967,392.351898 741.567810,418.722839 
	C742.649353,400.435791 742.595337,382.642578 742.704163,364.850372 
	C742.721619,361.994965 741.201111,360.695160 739.082031,359.480469 
	C729.556274,354.019958 720.060486,348.507294 710.540100,343.037323 
	C704.761353,339.717102 698.957581,336.440460 692.062683,332.516937 
	C693.716858,335.506104 694.680725,337.247986 696.001160,339.610016 
M636.888123,742.637756 
	C639.924194,742.996521 641.355530,741.025940 642.644287,738.753052 
	C646.418152,732.097168 650.214539,725.453979 654.034607,718.824646 
	C658.964294,710.269836 663.925476,701.733276 668.873108,693.188904 
	C668.646667,692.997437 668.420166,692.805908 668.193665,692.614441 
	C639.864258,708.955322 611.534851,725.296265 583.205444,741.637146 
	C583.347229,741.972595 583.489014,742.308044 583.630798,742.643494 
	C601.088684,742.643494 618.546509,742.643494 636.888123,742.637756 
M727.078796,608.492981 
	C715.590881,628.416321 704.102966,648.339661 692.615051,668.263000 
	C708.893982,659.848389 724.415466,650.831848 739.984131,641.897400 
	C742.437195,640.489685 742.682434,638.403320 742.671326,635.964172 
	C742.626404,626.148071 742.655518,616.331604 742.656494,606.515320 
	C742.657227,598.650269 742.656677,590.785278 742.656677,581.505615 
	C737.064880,591.173340 732.242615,599.510620 727.078796,608.492981 
M657.497498,288.933929 
	C652.587402,280.444031 647.579773,272.008331 642.820618,263.434662 
	C641.174194,260.468597 639.195496,259.233459 635.715393,259.271912 
	C620.086060,259.444641 604.453552,259.326263 588.822449,259.377167 
	C587.276184,259.382202 585.574402,258.930847 583.612976,260.491333 
	C612.019958,276.932526 640.131042,293.202484 668.242188,309.472443 
	C668.458130,309.265106 668.674072,309.057770 668.890076,308.850433 
	C665.206421,302.427612 661.522827,296.004761 657.497498,288.933929 
M268.058258,356.636902 
	C260.827057,359.046661 258.691986,363.921143 259.159271,371.495056 
	C259.875122,383.098022 259.345154,394.777893 259.344177,406.425110 
	C259.343811,410.623230 259.344116,414.821320 259.344116,419.019440 
	C259.618713,419.049500 259.893311,419.079590 260.167908,419.109650 
	C276.571136,390.653656 292.974365,362.197632 310.132874,332.431458 
	C295.425598,340.886169 282.056335,348.571747 268.058258,356.636902 
M373.527222,259.350098 
	C371.697540,259.347870 369.832916,259.573547 368.044861,259.299591 
	C363.204254,258.557953 360.398224,260.672699 358.270996,264.925049 
	C355.448395,270.567413 352.087769,275.941467 348.938416,281.419342 
	C343.677399,290.570221 338.400604,299.712036 333.130432,308.857635 
	C333.343109,309.037964 333.555756,309.218323 333.768402,309.398651 
	C362.097382,293.033356 390.426361,276.668091 418.755341,260.302795 
	C418.628265,259.985443 418.501190,259.668091 418.374115,259.350739 
	C403.755798,259.350739 389.137512,259.350739 373.527222,259.350098 
z"/>
<path fill="#000000" opacity="1.000000" stroke="none" 
	d="
M489.961975,508.377869 
	C471.462860,502.764984 461.306793,486.672302 461.943878,469.373413 
	C462.655273,450.056458 475.262177,436.414734 494.555695,432.581573 
	C496.557678,432.183838 498.216766,431.359375 499.802216,429.978210 
	C505.429657,425.075775 510.584412,425.591278 515.010437,431.509735 
	C516.139160,433.019043 517.268066,433.779327 519.108337,433.714111 
	C521.526672,433.628357 524.082153,434.141724 525.514587,435.972717 
	C529.205017,440.689789 533.099243,445.415131 535.761902,450.714996 
	C537.862244,454.895569 538.564697,459.883362 539.350464,464.602112 
	C544.116150,493.221954 518.493835,516.101562 489.961975,508.377869 
M490.411713,457.767578 
	C499.583191,451.695892 508.283539,453.027161 514.969604,461.513824 
	C516.177124,463.046570 517.244751,464.862457 519.938110,464.248169 
	C520.484009,460.918579 521.133545,457.545288 525.701172,457.649078 
	C528.628906,457.715576 530.549133,459.158447 531.038757,461.926544 
	C532.036804,467.569183 527.128418,467.828705 523.473083,469.221039 
	C524.214722,471.084534 524.718994,472.668091 525.452515,474.137085 
	C527.971252,479.181061 530.569397,479.636505 534.751221,475.944977 
	C536.907043,474.041931 537.921387,471.793945 537.614380,468.881775 
	C536.964294,462.717499 535.460022,456.519318 532.909546,451.158966 
	C530.807007,446.740143 526.545471,443.198608 524.279663,438.449341 
	C523.528748,436.875488 521.318420,435.883148 519.473267,436.469940 
	C515.724365,437.662262 514.323425,435.786194 512.649902,432.824982 
	C510.420441,428.880066 505.820648,428.026825 502.948486,431.013275 
	C500.287506,433.780121 497.140045,434.576233 493.726227,435.267883 
	C470.488037,439.976074 457.792358,465.640747 468.216431,486.826782 
	C469.700409,489.842926 471.527161,492.630432 474.289368,494.631775 
	C478.142059,497.423187 480.451141,496.838959 482.617706,492.585968 
	C483.823547,490.218933 484.628540,487.574829 486.184174,485.478516 
	C487.877441,483.196716 487.567810,481.460754 486.413483,479.127167 
	C482.449310,471.113037 483.585785,464.777588 490.411713,457.767578 
M505.353790,487.279297 
	C501.346436,488.197998 497.388947,487.992706 493.698151,486.178589 
	C490.536194,484.624420 488.680878,485.654907 487.391876,488.617615 
	C485.565399,492.815735 483.898895,497.119537 479.880280,499.900665 
	C499.790161,515.743958 529.872437,504.596161 536.126892,478.949799 
	C523.301208,486.203491 523.828552,472.579407 518.460632,467.286530 
	C517.850769,478.521881 514.897339,483.095245 505.353790,487.279297 
M488.246826,464.858215 
	C487.815216,466.287292 487.246796,467.690918 486.975067,469.149780 
	C485.622284,476.412384 491.463470,483.935455 498.988464,484.710419 
	C507.240326,485.560181 514.345520,480.020203 514.763062,472.410797 
	C515.183228,464.754303 511.858582,459.600494 505.081177,457.402039 
	C498.547424,455.282623 493.105774,457.519928 488.246826,464.858215 
M526.103455,460.480042 
	C523.267456,460.587891 522.700256,462.232574 523.756226,464.448853 
	C524.426270,465.855225 525.914795,465.942627 527.123352,464.992767 
	C529.095642,463.442535 528.637024,461.964783 526.103455,460.480042 
z"/>
<path fill="#000000" opacity="1.000000" stroke="none" 
	d="
M581.248169,525.721191 
	C585.520996,526.015930 589.324463,526.375183 593.135803,526.599976 
	C598.212891,526.899475 602.667053,528.297974 605.074036,533.261047 
	C607.552856,538.372192 605.708496,542.591858 601.796326,546.462830 
	C604.052063,549.411560 606.371155,552.287354 606.043213,556.216492 
	C605.595154,561.586121 601.667908,565.975098 596.075500,566.290344 
	C590.293152,566.616211 584.463074,566.219971 578.659851,565.989502 
	C576.460815,565.902283 574.936462,564.958374 575.108826,562.241150 
	C575.760254,551.970398 576.209351,541.686340 576.918579,531.420105 
	C577.087280,528.978455 576.687439,525.701660 581.248169,525.721191 
M587.236328,550.675415 
	C585.702271,552.739868 584.424377,555.338196 586.321045,557.293213 
	C588.007629,559.031677 590.826050,558.935059 593.304993,557.849060 
	C595.059448,557.080383 595.898438,555.852966 595.621277,553.980591 
	C595.223938,551.296875 593.032349,550.822815 590.907227,550.434753 
	C589.955627,550.260925 588.942505,550.424194 587.236328,550.675415 
M595.094055,536.340515 
	C592.450378,534.624817 589.691223,532.676453 587.069397,536.129395 
	C586.104919,537.399597 585.797729,539.414124 586.882446,540.790283 
	C588.288635,542.574280 590.492493,542.051331 592.388184,541.664246 
	C594.856140,541.160156 595.996277,539.566345 595.094055,536.340515 
z"/>
<path fill="#000000" opacity="1.000000" stroke="none" 
	d="
M442.491089,524.848999 
	C456.514404,528.365784 459.301117,538.177307 449.519836,549.819580 
	C452.476044,554.095032 455.528381,558.509521 459.475464,564.218140 
	C454.059204,563.524597 449.754852,566.935181 446.096527,562.265747 
	C443.467194,558.909729 441.753418,554.833435 437.982849,551.721313 
	C436.517517,555.064392 437.283569,558.196350 437.305542,561.194580 
	C437.327423,564.178284 436.216797,565.447754 433.212677,565.348694 
	C430.381653,565.255371 427.296722,565.869934 427.118896,561.568176 
	C426.672943,550.779968 426.236664,539.991089 425.722107,529.206055 
	C425.602112,526.691162 426.723999,525.445007 429.108643,525.320007 
	C433.419434,525.094055 437.735352,524.966064 442.491089,524.848999 
M436.324707,539.986694 
	C436.342255,541.713196 436.324707,543.411011 438.880371,543.152771 
	C442.053955,542.832153 444.893707,542.159424 444.880920,538.121399 
	C444.870605,534.864929 443.128845,533.415039 439.916840,533.306763 
	C435.124603,533.145081 436.537262,536.634949 436.324707,539.986694 
z"/>
<path fill="#000000" opacity="1.000000" stroke="none" 
	d="
M355.231171,538.179260 
	C355.309662,540.112549 355.343658,541.611328 355.400391,543.109314 
	C355.493378,545.564331 356.735138,546.768005 359.229736,546.584717 
	C359.395691,546.572571 359.562103,546.566162 359.728333,546.558533 
	C368.781921,546.142944 369.969849,544.916199 368.191223,535.732239 
	C367.290771,531.082764 368.797546,529.424500 373.179901,528.876831 
	C378.124481,528.258972 378.034698,531.432068 378.330658,534.734863 
	C379.160797,543.998291 380.135010,553.248657 381.000885,562.509033 
	C381.270996,565.397827 382.369171,568.590515 377.608704,569.238403 
	C373.165375,569.843018 370.995209,568.277588 370.888733,563.817139 
	C370.876831,563.318542 370.803925,562.821655 370.766113,562.323425 
	C370.151215,554.221069 366.841156,552.284607 359.129822,555.372620 
	C357.556732,556.002502 357.225250,557.067078 357.258087,558.477234 
	C357.308472,560.640930 357.253235,562.821228 357.505890,564.963440 
	C358.174622,570.632996 355.907806,572.670349 350.284058,571.462097 
	C347.770203,570.922058 347.939545,568.962585 347.760803,567.210388 
	C346.765625,557.455078 345.768433,547.699219 344.898743,537.932251 
	C344.646820,535.103027 343.677338,532.137390 348.548676,531.427246 
	C353.032898,530.773560 354.727631,532.108276 354.972534,536.263428 
	C355.001831,536.759766 355.119995,537.250854 355.231171,538.179260 
z"/>
<path fill="#000000" opacity="1.000000" stroke="none" 
	d="
M415.819611,546.289368 
	C418.391266,552.616150 420.798157,558.597168 423.182037,564.521057 
	C417.137604,567.770264 414.203308,567.018677 411.453278,561.698547 
	C410.605652,560.058777 409.562347,559.036194 407.621338,559.125366 
	C404.963837,559.247375 402.276794,559.107727 399.651337,559.452576 
	C396.005463,559.931396 396.963409,563.503113 395.814850,565.683899 
	C394.015564,569.100220 390.623199,568.461304 387.842712,568.026489 
	C384.292084,567.471130 386.149261,564.690002 386.609161,562.851807 
	C389.227234,552.388000 392.143311,541.995789 394.585693,531.492615 
	C395.553925,527.328857 398.223877,526.948608 401.564606,526.793457 
	C404.974701,526.634949 408.058533,526.293274 409.496399,530.692200 
	C411.195923,535.891479 413.572052,540.869629 415.819611,546.289368 
M406.073883,549.985657 
	C406.393097,545.763000 404.140625,542.404358 402.288757,537.719360 
	C401.381836,542.614136 399.611938,546.189026 400.017639,550.139038 
	C401.981476,551.184753 403.747711,550.746399 406.073883,549.985657 
z"/>
<path fill="#000000" opacity="1.000000" stroke="none" 
	d="
M519.490967,542.609253 
	C521.338989,537.378479 523.305237,532.589661 524.730408,527.644897 
	C526.042358,523.093018 529.424561,523.778870 532.720947,523.721252 
	C535.899841,523.665771 538.399658,523.958679 539.523865,527.869263 
	C542.691650,538.888672 546.267578,549.791016 549.698120,560.734619 
	C550.003845,561.710022 550.257935,562.651001 549.703857,563.612610 
	C542.504761,565.338806 541.949829,565.098022 538.547852,558.422913 
	C538.066650,557.478821 537.544067,556.566467 536.467041,556.506104 
	C533.644714,556.347961 530.811279,556.396179 527.986633,556.266724 
	C524.173218,556.091980 524.245300,559.312927 523.148132,561.587708 
	C521.644958,564.704468 518.526672,565.045776 512.566956,562.532715 
	C514.822876,556.053223 517.098083,549.518188 519.490967,542.609253 
M530.750061,547.674255 
	C532.137085,547.535156 533.726929,548.344910 534.962097,546.678284 
	C534.570435,542.832336 533.477295,539.098206 531.805420,534.758240 
	C530.699158,538.200378 529.841370,540.861023 528.989441,543.523499 
	C528.486572,545.095093 527.659119,546.755859 530.750061,547.674255 
z"/>
<path fill="#000000" opacity="1.000000" stroke="none" 
	d="
M484.689880,523.777161 
	C488.295044,524.997986 487.308533,527.642700 487.032532,529.768555 
	C486.753967,531.914185 484.618073,531.751160 483.035828,531.894897 
	C480.720184,532.105225 478.382629,532.173340 476.056427,532.143738 
	C473.283325,532.108582 472.282440,533.374634 472.277771,536.110413 
	C472.272675,539.098450 473.781555,539.823059 476.354034,539.700684 
	C478.179718,539.613708 480.019226,539.787537 481.842010,539.674866 
	C484.901428,539.485718 485.952209,541.083008 486.058105,543.876770 
	C486.163818,546.666016 484.716583,547.804199 482.168762,547.938416 
	C480.175720,548.043396 478.178558,548.173706 476.185272,548.145996 
	C473.508026,548.108765 472.252197,549.154114 472.321899,552.003357 
	C472.392029,554.871216 473.787170,555.793335 476.402130,555.712830 
	C478.895325,555.635986 481.395386,555.766296 483.887543,555.673462 
	C486.718719,555.567993 488.207336,556.590637 488.274597,559.659424 
	C488.338898,562.594727 487.181335,564.025146 484.251404,564.052307 
	C478.262787,564.107849 472.273926,564.155457 466.286041,564.259033 
	C463.748993,564.302856 462.738556,563.089539 462.685394,560.620605 
	C462.452789,549.816040 462.186401,539.011780 461.839569,528.210388 
	C461.736908,525.014038 463.089905,523.675964 466.257324,523.718018 
	C472.245117,523.797607 478.234924,523.727966 484.689880,523.777161 
z"/>
<path fill="#000000" opacity="1.000000" stroke="none" 
	d="
M679.357849,558.546387 
	C676.314087,558.311340 673.681641,558.142212 670.840637,557.959656 
	C670.103394,560.287537 669.554138,562.463623 669.743225,564.998779 
	C673.353149,566.056030 676.922058,566.568359 680.545105,566.751648 
	C683.565552,566.904541 684.522888,568.562317 684.255798,571.397888 
	C683.979858,574.328003 682.641907,575.447083 679.637329,575.019714 
	C674.215454,574.248779 668.760376,573.708557 663.315918,573.101135 
	C659.980469,572.729065 658.326843,571.398376 658.869812,567.577881 
	C660.317383,557.393372 661.540588,547.173096 662.618347,536.942322 
	C662.951111,533.783447 664.120911,532.404114 667.325378,532.808472 
	C672.925842,533.515259 678.534180,534.161865 684.144104,534.790588 
	C687.071533,535.118652 688.019775,536.509033 687.598267,539.525452 
	C687.180359,542.516052 685.998962,543.603027 683.034058,543.067749 
	C680.752930,542.655884 678.407104,542.614624 676.111389,542.267456 
	C672.569580,541.731934 671.873779,544.098145 671.501282,546.713135 
	C671.062622,549.793091 673.431152,549.629578 675.385681,549.913086 
	C677.029602,550.151428 678.663208,550.598206 680.310425,550.647034 
	C683.248535,550.734253 684.550598,552.000305 684.260620,555.003479 
	C683.986755,557.840454 682.887268,559.423828 679.357849,558.546387 
z"/>
<path fill="#000000" opacity="1.000000" stroke="none" 
	d="
M331.827881,542.259644 
	C330.590179,542.252869 329.758636,542.255554 328.927399,542.271545 
	C327.157074,542.305664 325.399597,542.728027 324.953125,544.610046 
	C324.463928,546.672363 326.285156,547.517517 327.776764,548.173645 
	C330.052887,549.174805 332.480225,549.830688 334.762024,550.820557 
	C340.499359,553.309692 342.786163,556.939087 342.508942,562.842407 
	C342.263885,568.061462 339.298553,571.555603 333.577057,573.526245 
	C330.700592,574.516968 327.714172,574.852234 324.745209,574.760376 
	C317.773773,574.544617 315.968628,571.963806 317.456940,564.539368 
	C320.554626,564.577698 323.462860,566.253784 326.640564,565.881470 
	C328.770905,565.631897 331.241882,565.912415 331.682281,562.979248 
	C332.073822,560.371216 329.975098,559.663452 328.102783,558.913635 
	C325.483551,557.864624 322.780609,556.996826 320.239716,555.786499 
	C316.090881,553.810242 313.963867,550.226624 313.959534,545.776917 
	C313.954987,541.086853 316.408936,537.650085 320.667236,535.501160 
	C325.207520,533.209961 330.090973,533.106201 334.812988,533.944397 
	C339.903015,534.847778 338.001404,539.164124 338.223206,542.391785 
	C336.019989,543.625061 334.152740,541.961914 331.827881,542.259644 
z"/>
<path fill="#000000" opacity="1.000000" stroke="none" 
	d="
M645.498169,562.381531 
	C645.379944,563.989075 645.244812,565.155762 645.287048,566.315979 
	C645.473083,571.423218 642.115295,570.544312 638.845703,570.407410 
	C634.908630,570.242493 634.864502,568.250977 635.285583,565.076843 
	C636.267334,557.675842 636.712341,550.204834 637.625305,542.793030 
	C638.068665,539.193970 636.311035,537.866638 633.242004,537.696472 
	C629.711487,537.500671 628.235779,536.033569 628.703674,532.348267 
	C629.234863,528.163818 632.199280,529.543579 634.392578,529.710571 
	C641.014648,530.214844 647.610291,531.061646 654.230957,531.590271 
	C656.974426,531.809387 658.161926,532.819824 657.706848,535.669983 
	C657.306763,538.175476 656.926270,540.318665 653.476257,539.535522 
	C648.927063,538.502869 647.282837,540.450745 647.195923,545.092407 
	C647.090576,550.715759 646.144836,556.323303 645.498169,562.381531 
z"/>
<path fill="#000000" opacity="1.000000" stroke="none" 
	d="
M621.564209,552.474731 
	C621.062805,557.048462 621.428650,561.193420 620.604736,565.317139 
	C619.780457,569.442688 616.829468,568.128662 614.400879,568.230530 
	C611.635986,568.346497 610.508240,566.835083 610.728088,564.179016 
	C611.628784,553.299133 612.560852,542.421692 613.415588,531.538208 
	C613.648376,528.574219 615.054565,527.394470 617.970764,527.968994 
	C620.693176,528.505310 623.773071,528.445374 623.323181,532.728394 
	C622.649170,539.145691 622.192505,545.585815 621.564209,552.474731 
z"/>
<path fill="#000000" opacity="1.000000" stroke="none" 
	d="
M505.741882,543.812500 
	C510.036346,544.195374 509.332703,547.057312 509.225647,549.463684 
	C509.112396,552.008850 507.107361,552.102661 505.240173,552.147278 
	C502.581604,552.210876 499.919769,552.140503 497.261414,552.208862 
	C494.495667,552.279968 492.864197,551.336975 492.802643,548.244080 
	C492.738739,545.032654 494.151703,543.697754 497.294159,543.802673 
	C499.950409,543.891357 502.612823,543.796997 505.741882,543.812500 
z"/>
<path fill="#000000" opacity="1.000000" stroke="none" 
	d="
M553.898315,548.178101 
	C554.261230,545.402710 555.853760,544.791077 557.891357,544.946533 
	C561.839172,545.247620 565.781494,545.619751 569.645325,545.955383 
	C571.084351,552.983826 570.811279,553.330200 564.038391,553.321350 
	C562.210327,553.318970 560.379639,553.217834 558.554810,553.286377 
	C555.273254,553.409607 553.440918,552.168640 553.898315,548.178101 
z"/>
<path fill="#000000" opacity="1.000000" stroke="none" 
	d="
M479.219208,474.318146 
	C482.512848,478.718689 482.308044,481.844696 478.813263,483.588745 
	C475.532867,485.225769 473.060730,483.932831 471.370758,480.972443 
	C470.394653,479.262543 470.557373,477.466278 471.765411,475.865753 
	C473.647858,473.371735 476.161713,473.292175 479.219208,474.318146 
M478.711029,479.303467 
	C478.663025,476.961365 477.570343,475.789154 475.267670,476.756500 
	C473.704498,477.413208 473.003693,478.899506 474.229706,480.371735 
	C475.705322,482.143707 477.307068,482.060791 478.711029,479.303467 
z"/>
<path fill="#000000" opacity="1.000000" stroke="none" 
	d="
M490.656525,441.347717 
	C493.927856,440.169617 496.280945,440.960876 497.726898,443.650513 
	C498.818176,445.680389 498.585297,447.799103 497.158325,449.684753 
	C495.649353,451.678741 493.556946,451.933990 491.378754,451.290985 
	C487.056763,450.015198 486.599121,445.615448 490.656525,441.347717 
M491.006866,447.673035 
	C492.699127,449.219513 494.386536,449.166351 495.339966,447.071747 
	C496.062439,445.484436 495.000000,444.041290 493.388306,443.766357 
	C490.863739,443.335693 490.350616,444.978180 491.006866,447.673035 
z"/>
<path fill="#000000" opacity="1.000000" stroke="none" 
	d="
M510.653687,452.782227 
	C507.772888,451.126221 507.175201,448.826660 507.748016,446.166168 
	C508.178131,444.168274 509.626221,443.054962 511.593079,442.755585 
	C513.854431,442.411316 515.908813,442.815948 517.315796,444.880615 
	C518.441895,446.533112 518.699341,448.331818 517.730042,450.060486 
	C516.267029,452.669647 514.007080,453.754089 510.653687,452.782227 
M514.951050,446.326904 
	C513.207031,444.726532 511.603485,444.902863 510.588593,447.012939 
	C509.951080,448.338287 510.472595,449.918182 511.929535,450.250977 
	C514.482300,450.834045 515.578796,449.433075 514.951050,446.326904 
z"/>
<path fill="#000000" opacity="1.000000" stroke="none" 
	d="
M481.795654,462.815491 
	C478.815063,464.859802 476.162018,465.050842 473.875885,462.558380 
	C472.245850,460.781189 472.277405,458.551605 473.261475,456.481018 
	C474.312897,454.268768 476.323029,453.510162 478.671906,453.776520 
	C482.755676,454.239624 484.080353,457.676453 481.795654,462.815491 
M476.386963,456.965576 
	C474.881256,458.693756 474.831146,460.408203 477.011902,461.411377 
	C478.642456,462.161407 480.135834,461.214874 480.346893,459.481506 
	C480.631592,457.143677 479.297699,456.139221 476.386963,456.965576 
z"/>
<path fill="#000000" opacity="1.000000" stroke="none" 
	d="
M515.803223,487.305450 
	C520.190063,489.506042 521.586060,492.656982 519.541870,495.553802 
	C517.716980,498.139862 515.079163,499.178772 512.241821,497.280640 
	C509.313995,495.322113 508.900665,492.488373 510.739441,489.494446 
	C511.770477,487.815735 513.460449,487.169617 515.803223,487.305450 
M513.246155,494.180847 
	C515.062500,496.207153 516.489075,495.457886 517.374756,493.385040 
	C517.990784,491.943451 517.274475,490.628998 515.703918,490.401794 
	C513.337769,490.059570 512.242798,491.149017 513.246155,494.180847 
z"/>
<path fill="#000000" opacity="1.000000" stroke="none" 
	d="
M497.447754,491.170654 
	C500.423492,492.795929 501.862610,494.765442 500.697937,497.896576 
	C499.767273,500.398682 497.921295,501.560883 495.321259,501.549744 
	C492.603271,501.538116 490.984741,499.983398 490.266205,497.516113 
	C489.126801,493.603882 491.884125,491.012299 497.447754,491.170654 
M498.365845,496.411469 
	C498.004547,493.975830 496.669098,492.849152 494.347961,493.983246 
	C492.931854,494.675171 492.164795,496.252380 493.357697,497.639801 
	C495.062775,499.622955 496.756104,498.863342 498.365845,496.411469 
z"/>
</svg>